<svg width="18" height="21" viewBox="0 0 18 21" fill="none" xmlns="http://www.w3.org/2000/svg">
<path id="Vector" d="M2.84328 3.06789C6.24369 -0.332524 11.7569 -0.332524 15.1573 3.06789C18.5577 6.4683 18.5577 11.9815 15.1573 15.3819L13.9703 16.5558C13.0954 17.4144 11.9603 18.5184 10.5644 19.8679C9.69219 20.7113 8.30839 20.7112 7.43629 19.8677L3.94515 16.4718C3.50639 16.041 3.13912 15.6777 2.84328 15.3819C-0.557134 11.9815 -0.557134 6.4683 2.84328 3.06789ZM14.0966 4.12855C11.282 1.31392 6.71856 1.31392 3.90394 4.12855C1.08931 6.94317 1.08931 11.5066 3.90394 14.3212L5.39101 15.7887C6.20992 16.5901 7.23939 17.5905 8.47909 18.7895C8.76979 19.0706 9.23099 19.0707 9.52179 18.7896L12.9167 15.4881C13.3856 15.0278 13.779 14.6388 14.0966 14.3212C16.9112 11.5066 16.9112 6.94317 14.0966 4.12855ZM9.00029 6.49854C10.658 6.49854 12.0018 7.84238 12.0018 9.5001C12.0018 11.1578 10.658 12.5016 9.00029 12.5016C7.34259 12.5016 5.99872 11.1578 5.99872 9.5001C5.99872 7.84238 7.34259 6.49854 9.00029 6.49854ZM9.00029 7.99854C8.17099 7.99854 7.49869 8.6708 7.49869 9.5001C7.49869 10.3294 8.17099 11.0016 9.00029 11.0016C9.82959 11.0016 10.5018 10.3294 10.5018 9.5001C10.5018 8.6708 9.82959 7.99854 9.00029 7.99854Z" fill="#0F0558"/>
</svg>
