<svg width="20" height="21" viewBox="0 0 20 21" fill="none" xmlns="http://www.w3.org/2000/svg">
<path id="Vector" d="M18.9519 1.54737C17.5543 0.149846 15.2885 0.149906 13.8911 1.54752L1.94103 13.499C1.5347 13.9054 1.2491 14.4165 1.116 14.9755L0.0204088 19.577C-0.0399112 19.8304 0.0355188 20.0969 0.219679 20.281C0.403849 20.4652 0.670369 20.5406 0.923729 20.4803L5.52498 19.3848C6.08418 19.2516 6.59546 18.9659 7.00191 18.5594L18.952 6.60788C20.3493 5.21039 20.3493 2.94477 18.9519 1.54737ZM14.9518 2.60811C15.7634 1.79636 17.0795 1.79632 17.8912 2.60803C18.7028 3.41967 18.7029 4.73559 17.8913 5.54728L17 6.43873L14.0606 3.49939L14.9518 2.60811ZM13 4.56011L15.9394 7.49945L5.94119 17.4988C5.73104 17.709 5.46668 17.8567 5.17755 17.9256L1.76191 18.7388L2.57521 15.323C2.64402 15.0339 2.79168 14.7697 3.00175 14.5596L13 4.56011Z" fill="black"/>
</svg>
